<?xml version="1.0" standalone="no"?><!DOCTYPE svg PUBLIC "-//W3C//DTD SVG 1.1//EN" "http://www.w3.org/Graphics/SVG/1.1/DTD/svg11.dtd"><svg t="1650722004142" class="icon" viewBox="0 0 1024 1024" version="1.1" xmlns="http://www.w3.org/2000/svg" p-id="7049" xmlns:xlink="http://www.w3.org/1999/xlink" width="200" height="200"><defs><style type="text/css"></style></defs><path d="M179.5 982.5c-1.9 0-3.9-0.4-5.7-1.1-5.5-2.3-9.1-7.6-9.1-13.5v-0.1l0.5-113.6-110.6-2.5c-6-0.1-11.2-3.8-13.4-9.3-2.2-5.5-0.9-11.8 3.3-16l0.1-0.1L190 687.4c2.8-2.7 6.5-4.3 10.4-4.3h0.1l125.7 0.8 504.2-504.2 11.3 11.3-504.2 504.2v128.3c0 4-1.6 7.8-4.4 10.6L189.8 978.3c-2.8 2.7-6.5 4.2-10.3 4.2z m1.7-130.9l-0.5 113.2 140.8-141.7V711.2L181.2 851.6zM57.7 835.7l114.2 2.5 138.4-138.4-109.4-0.7L57.7 835.7z" fill="#FF578F" p-id="7050"></path><path d="M898.1 257.1c-17.3 0-32.3-5.4-43.7-15.8-12.3-11.2-19.6-27.6-21.2-47.6-17 0.5-33.2-5.4-45.9-16.6-14-12.4-22.7-30.2-23.6-48.8-2.4-46.3 33.3-86 79.6-88.4h0.3l93.6 3.1c18.1 0.6 33.2 14.6 35 32.6l9.8 93c2.4 46.3-33.3 86-79.6 88.4-1.4 0.1-2.9 0.1-4.3 0.1z m-61.9-79.6c3.1 0 6.1 1.1 8.4 3.2 2.6 2.3 4.2 5.6 4.4 9.1 0.9 17.1 6.5 30.8 16.2 39.6 9.1 8.3 21.8 12.3 36.5 11.5 37.4-2 66.3-34 64.4-71.4l-9.7-92.4c-1.1-10.1-9.5-18-19.7-18.3l-93-3c-37.3 2.1-66.1 34.2-64.1 71.6 0.8 14.4 7.4 28.1 18.2 37.7 7.2 6.4 19.6 13.7 37.3 12.4 0.4 0.1 0.7 0 1.1 0z" fill="#FF578F" p-id="7051"></path><path d="M683 869.9l-11.1-11.5c71.7-69.3 111.2-162.4 111.2-262.1 0-201-163.5-364.5-364.5-364.5-93.2 0-181.9 35.1-249.7 99l-11-11.7c70.8-66.6 163.4-103.3 260.7-103.3 51.4 0 101.2 10.1 148.1 29.9 45.3 19.2 86 46.6 120.9 81.5s62.4 75.6 81.5 120.9C788.9 495 799 544.8 799 596.2c0 52.5-10.5 103.4-31.2 151.2-19.9 46.1-48.5 87.3-84.8 122.5z" fill="#0000FF" p-id="7052"></path><path d="M89.592469 325.932a74.3 74.3 0 1 0 147.638013-16.881264 74.3 74.3 0 1 0-147.638013 16.881264Z" fill="#FFFFFF" p-id="7053"></path><path d="M163.3 399.8c-41.2 0-76.9-31-81.7-73-5.2-45.1 27.3-86 72.4-91.1 21.8-2.5 43.4 3.7 60.6 17.3s28.1 33.2 30.6 55.1c2.5 21.8-3.7 43.4-17.3 60.6-13.7 17.2-33.2 28.1-55.1 30.6-3.2 0.3-6.4 0.5-9.5 0.5z m0.2-148.6c-2.5 0-5.1 0.1-7.7 0.4-36.3 4.2-62.5 37.1-58.3 73.4 3.9 33.8 32.6 58.8 65.8 58.8 2.5 0 5-0.1 7.6-0.4 17.6-2 33.4-10.8 44.4-24.6 11-13.9 16-31.2 14-48.8-2-17.6-10.8-33.4-24.6-44.4-11.9-9.4-26.3-14.4-41.2-14.4z" fill="#0000FF" p-id="7054"></path><path d="M615.810775 872.507251a74.3 74.3 0 1 0 147.638013-16.881264 74.3 74.3 0 1 0-147.638013 16.881264Z" fill="#FFFFFF" p-id="7055"></path><path d="M689.4 946.4c-18.5 0-36.3-6.2-51.1-17.9-17.2-13.7-28.1-33.2-30.6-55.1-2.5-21.8 3.7-43.4 17.3-60.6 13.7-17.2 33.2-28.1 55.1-30.6 21.8-2.5 43.3 3.7 60.6 17.3 17.2 13.7 28.1 33.2 30.6 55.1 2.5 21.8-3.7 43.4-17.3 60.6-13.7 17.2-33.2 28.1-55.1 30.6-3.2 0.4-6.3 0.6-9.5 0.6z m0.3-148.6c-2.5 0-5.1 0.1-7.7 0.4-17.6 2-33.4 10.8-44.4 24.6s-16 31.2-14 48.8c2 17.6 10.8 33.4 24.6 44.4 13.9 11 31.2 16 48.8 14 17.6-2 33.4-10.8 44.4-24.6s16-31.2 14-48.8c-2-17.6-10.8-33.4-24.6-44.4-11.8-9.4-26.2-14.4-41.1-14.4z" fill="#0000FF" p-id="7056"></path><path d="M915.1 94.7h-0.2l-74.3-3.4c-2.2-0.1-3.9-2-3.8-4.2 0.1-2.2 2-3.9 4.2-3.8l74.3 3.4c2.2 0.1 3.9 2 3.8 4.2-0.1 2.1-1.9 3.8-4 3.8zM866.8 121h-0.2l-26-1.2c-2.2-0.1-3.9-2-3.8-4.2 0.1-2.2 2-3.9 4.2-3.8l26 1.2c2.2 0.1 3.9 2 3.8 4.2-0.1 2.1-1.9 3.8-4 3.8z" p-id="7057"></path><path d="M269.3 752.1h-60.9" fill="#FFFFFF" p-id="7058"></path><path d="M269.3 756.1h-60.9c-2.2 0-4-1.8-4-4s1.8-4 4-4h60.9c2.2 0 4 1.8 4 4s-1.8 4-4 4z" fill="#0000FF" p-id="7059"></path><path d="M269.3 813v-60.9" fill="#FFFFFF" p-id="7060"></path><path d="M269.3 817c-2.2 0-4-1.8-4-4v-60.9c0-2.2 1.8-4 4-4s4 1.8 4 4V813c0 2.2-1.8 4-4 4z" fill="#0000FF" p-id="7061"></path><path d="M231.2 788.5h-60.9" fill="#FFFFFF" p-id="7062"></path><path d="M231.2 792.5h-60.9c-2.2 0-4-1.8-4-4s1.8-4 4-4h60.9c2.2 0 4 1.8 4 4s-1.8 4-4 4z" fill="#0000FF" p-id="7063"></path><path d="M231.2 849.4v-60.9" fill="#FFFFFF" p-id="7064"></path><path d="M231.2 853.4c-2.2 0-4-1.8-4-4v-60.9c0-2.2 1.8-4 4-4s4 1.8 4 4v60.9c0 2.2-1.8 4-4 4z" fill="#0000FF" p-id="7065"></path><path d="M163.4 355.6c-12.3 0-21.9-3.8-28.7-11.3-12.2-13.5-10.3-34.1-10.2-34.9 0.2-2.2 2.2-3.8 4.4-3.6 2.2 0.2 3.8 2.2 3.6 4.4 0 0.2-1.6 17.9 8.2 28.8 5.2 5.7 12.9 8.6 22.8 8.6 2.2 0 4 1.8 4 4s-1.9 4-4.1 4z" fill="#FF578F" p-id="7066"></path><path d="M687.4 903.2c-6.5 0-12.4-1.6-17.6-4.8-14.9-9-18.7-27.4-18.8-28.2-0.4-2.2 1-4.3 3.1-4.7 2.2-0.4 4.3 1 4.7 3.1 0.1 0.3 3.4 15.8 15.2 22.9 6.8 4.1 15.2 4.7 25.1 1.7 2.1-0.6 4.3 0.6 5 2.7 0.6 2.1-0.6 4.3-2.7 5-5 1.5-9.6 2.3-14 2.3z" fill="#FF578F" p-id="7067"></path></svg>